<svg xmlns="http://www.w3.org/2000/svg" viewBox="0 0 32 32" width="32" height="32"><rect width="32" height="32" rx="6" fill="#000"/><g fill="none" stroke="#fff" stroke-width="2" stroke-linecap="round"><path d="M10 7v18"/><path d="M10 7c3 0 3 0 3 3"/><path d="M10 25c3 0 3 0 3-3"/><path d="M22 7v18"/><path d="M22 7c-3 0-3 0-3 3"/><path d="M22 25c-3 0-3 0-3-3"/></g><path d="M15 12v8M15 12c1.5 0 1.5 4 1.5 4M18 20v-4c0-1 .8-1 1.5-1" fill="none" stroke="#fff" stroke-width="1.6" stroke-linecap="round"/></svg>
