<svg xmlns="http://www.w3.org/2000/svg" viewBox="0 0 32 32" width="32" height="32"><rect width="32" height="32" rx="6" fill="#12B7F5"/><path d="M16 6c-3.6 0-5.7 2.6-5.7 6 0 1.3-1.3 2.7-1.8 4-.6 1.6-.2 2.4.6 2.4.4 0 .8-.2 1.2-.6.3 1.4 1.6 2.6 3 3.1-.5.3-.9.7-.9 1.1 0 .8 1.6 1.5 3.6 1.5s3.6-.7 3.6-1.5c0-.4-.4-.8-.9-1.1 1.4-.5 2.7-1.7 3-3.1.4.4.8.6 1.2.6.8 0 1.2-.8.6-2.4-.5-1.3-1.8-2.7-1.8-4 0-3.4-2.1-6-5.5-6z" fill="#fff"/><circle cx="13.7" cy="13" r="1.1" fill="#12B7F5"/><circle cx="18.3" cy="13" r="1.1" fill="#12B7F5"/></svg>
